<svg width="24" height="24" viewBox="0 0 24 24" fill="none" xmlns="http://www.w3.org/2000/svg">
<circle cx="12" cy="12" r="12" fill="white"/>
<path d="M11.6763 3.68614L10.0853 6.90757C9.96082 7.15964 9.95863 7.45485 10.0794 7.70873L14.7243 17.4759C14.8765 17.796 15.1993 17.9999 15.5537 17.9999H18.7723C19.4496 17.9999 19.8939 17.2919 19.5994 16.6821L13.3269 3.69345C12.9943 3.00478 12.015 3.00045 11.6763 3.68614Z" fill="#213B6D"/>
<path d="M7.65244 11.8916L8.3314 13.2663C8.38453 13.3739 8.38546 13.4999 8.33394 13.6082L6.35171 17.7764C6.28675 17.913 6.149 18 5.99775 18H4.6242C4.33518 18 4.14557 17.6979 4.27125 17.4376L6.94806 11.8947C7.08999 11.6008 7.50792 11.5989 7.65244 11.8916Z" fill="#213B6D"/>
<path d="M9.18643 9.22095C9.18643 9.93166 9.75128 10.5078 10.4481 10.5078C9.75128 10.5078 9.18643 11.0839 9.18643 11.7947C9.18643 11.0839 8.62158 10.5078 7.9248 10.5078C8.62158 10.5078 9.18643 9.93166 9.18643 9.22095Z" fill="#213B6D" stroke="#213B6D" stroke-width="0.411418" stroke-linecap="round" stroke-linejoin="round"/>
</svg>
