<svg width="24" height="24" viewBox="0 0 24 24" fill="none" xmlns="http://www.w3.org/2000/svg">
<circle cx="12" cy="12" r="12" fill="#213B6D"/>
<path d="M11.6758 3.68614L10.0848 6.90757C9.96033 7.15964 9.95814 7.45485 10.0789 7.70873L14.7238 17.4759C14.876 17.796 15.1988 17.9999 15.5532 17.9999H18.7718C19.4491 17.9999 19.8934 17.2919 19.5989 16.6821L13.3264 3.69345C12.9938 3.00478 12.0145 3.00045 11.6758 3.68614Z" fill="white"/>
<path d="M7.65293 11.8916L8.33189 13.2663C8.38502 13.3739 8.38595 13.4999 8.33443 13.6082L6.3522 17.7764C6.28724 17.913 6.14949 18 5.99823 18H4.62469C4.33567 18 4.14605 17.6979 4.27174 17.4376L6.94855 11.8947C7.09047 11.6008 7.50841 11.5989 7.65293 11.8916Z" fill="white" stroke="white" stroke-width="0.653255" stroke-linecap="round"/>
<path d="M9.18643 9.22095C9.18643 9.93166 9.75128 10.5078 10.4481 10.5078C9.75128 10.5078 9.18643 11.0839 9.18643 11.7947C9.18643 11.0839 8.62158 10.5078 7.9248 10.5078C8.62158 10.5078 9.18643 9.93166 9.18643 9.22095Z" fill="white" stroke="white" stroke-width="0.411418" stroke-linecap="round" stroke-linejoin="round"/>
</svg>
