<svg width="1534" height="534" viewBox="0 0 1534 534" fill="none" xmlns="http://www.w3.org/2000/svg">
<path d="M1060 308.591C1068.32 316.441 1077.22 324.853 1086.44 333.565C1089.07 330.282 1091.5 327.237 1094.19 323.867C1091.86 322.582 1089.83 321.621 1087.98 320.398C1083.07 317.153 1080.68 310.338 1082.56 305.046C1084.68 299.093 1089.18 296.547 1095.23 297.358C1099.87 297.982 1104.43 299.342 1109.78 300.553C1111.21 294.849 1112.7 288.908 1114.29 282.581C1110.11 281.17 1105.7 280.621 1102.52 278.362C1099.27 276.041 1095.37 272.147 1095.17 268.752C1094.97 265.295 1098.2 260.639 1101.28 258.268C1105.05 255.36 1110.23 254.274 1115.75 252.003C1114.69 246.573 1113.52 240.633 1112.25 234.192C1102.76 237.275 1092.85 240.832 1087.49 230.174C1082.75 220.726 1090.4 214.448 1097.48 207.933C1092.76 203.914 1088.12 199.957 1083.26 195.826C1077.32 200.457 1070.22 208.707 1060.95 202.329C1052.82 196.75 1055.82 187.489 1058.77 178.303C1053.05 176.369 1047.33 174.434 1041.4 172.425C1037.83 181.211 1037.24 193.031 1024.68 192.144C1013.87 191.396 1013.53 180.874 1010.76 171.876C1004.86 173.298 998.978 174.734 992.95 176.194C993.35 185.205 999.839 195.627 988.532 201.031C978.347 205.898 972.918 196.8 966.441 190.335C961.885 194.441 957.33 198.547 952.512 202.878C958.628 210.179 967.814 216.969 960.812 227.141C954.596 236.177 945.56 231.06 936.849 228.289C935.051 234.305 933.292 240.171 931.482 246.261C940.006 250.205 952.325 250.829 950.752 263.71C949.442 274.418 939.033 274.381 929.934 276.041C931.432 282.518 932.88 288.796 934.378 295.236C943.514 293.214 952.637 287.71 959.027 298.282C963.008 304.871 959.776 311.362 948.306 321.359C949.529 323.094 950.79 324.903 952.362 327.137C948.98 331.231 945.585 335.337 942.203 339.431C947.158 344.473 955.208 344.86 963.982 340.604C971.645 336.885 971.795 336.797 975.839 344.136C979.047 349.94 981.805 355.993 984.813 361.909C986.248 364.742 985.524 366.14 982.554 367.638C978.16 369.847 973.655 372.368 970.16 375.75C963.196 382.49 965.068 391.663 974.104 395.295C978.422 397.03 983.352 397.754 988.045 397.929C992.276 398.078 993.499 399.701 993.424 403.52C993.299 410.385 993.237 417.249 993.424 424.101C993.562 429.418 991.739 431.727 986.061 430.816C982.429 430.242 978.609 430.466 974.915 430.728C969.424 431.115 965.38 434.011 963.82 439.303C962.172 444.882 962.235 450.548 966.865 454.966C968.787 456.801 971.084 458.336 973.43 459.609C981.018 463.728 981.268 463.84 977.187 471.229C974.279 476.483 970.784 481.413 967.589 486.505C965.492 489.85 963.396 489.875 959.888 487.878C955.121 485.157 949.891 482.674 944.562 481.625C936.125 479.953 930.022 485.507 930.845 493.969C931.307 498.749 933.079 503.666 935.339 507.947C937.211 511.517 937.298 513.564 933.666 515.386C926.814 518.831 919.95 522.275 913.123 525.77C909.865 527.442 907.993 526.831 906.508 523.161C904.973 519.367 902.863 515.648 900.305 512.465C896.873 508.172 892.355 506 886.513 507.798C880.498 509.645 877.902 513.988 877.265 519.779C876.903 523.074 876.691 526.444 876.966 529.739C877.265 533.421 875.93 535.468 872.31 535.53C864.622 535.68 856.934 535.63 849.233 535.63C845.701 535.63 844.703 533.645 844.84 530.35C845.015 526.207 845.002 522.026 844.69 517.882C844.241 511.754 841.133 507.361 835.255 505.177C829.488 503.03 824.983 505.564 821.388 509.62C817.844 513.626 814.898 518.144 810.717 523.736C803.017 518.456 795.141 513.252 787.59 507.61C786.579 506.862 786.604 503.579 787.291 501.944C788.788 498.35 791.422 495.204 792.845 491.585C794.854 486.48 794.842 481.201 790.361 477.207C785.868 473.213 780.514 472.04 774.698 474.049C773.337 474.524 772.039 475.21 770.741 475.872C762.005 480.415 761.618 480.402 756.775 471.541C754.191 466.823 752.22 461.768 749.786 456.951C748.088 453.593 748.912 451.833 752.332 450.198C755.839 448.514 759.346 446.329 762.054 443.584C764.438 441.162 765.711 437.668 768.395 433.1H0.124809C0.087366 432.563 0.0374425 432.039 0 431.502C1.65995 431.315 3.31991 430.978 4.96738 430.978C57.1748 430.816 710.983 430.691 763.19 430.566C769.231 430.554 770.866 432.451 768.669 438.067C767.446 441.212 765.012 443.983 762.728 446.579C761.268 448.251 759.134 449.375 757.224 450.623C755.502 451.746 753.68 452.732 751.084 454.255C754.978 461.856 758.784 469.269 762.878 477.244C773.487 470.642 784.008 466.124 792.932 476.458C801.681 486.593 794.018 495.803 788.152 505.576C795.316 510.381 802.467 515.174 809.906 520.154C812.876 516.097 815.223 512.478 817.981 509.22C822.686 503.679 828.403 499.997 836.016 502.655C843.841 505.389 847.236 511.454 847.373 519.505C847.448 523.648 847.386 527.804 847.386 532.971C855.698 532.971 863.698 533.084 871.686 532.809C872.522 532.784 873.77 530.575 873.97 529.24C874.457 525.97 874.307 522.6 874.669 519.305C875.43 512.278 878.825 507.248 885.889 505.177C893.066 503.08 898.657 505.938 902.901 511.342C905.809 515.036 907.831 519.43 910.689 524.247C918.464 520.266 926.29 516.26 933.204 512.715C931.245 505.888 928.811 500.272 928.162 494.468C927.001 483.947 935.026 476.683 945.361 478.929C951.701 480.302 957.667 483.398 964.918 486.131C968.812 479.803 973.205 472.664 978.048 464.789C966.141 459.771 956.831 453.057 961.136 439.24C965.754 424.401 978.759 427.795 990.416 428.045V401.136C979.596 399.489 966.653 400.6 963.92 386.921C961.249 373.516 973.53 369.709 983.115 363.656C979.021 355.881 974.94 348.105 970.722 340.067C960.038 345.646 950.029 349.266 939.37 342.114C935.101 346.82 930.958 351.4 926.852 355.918C958.054 396.156 947.782 445.531 921.335 468.87C894.713 492.346 849.82 495.541 821.838 475.06C792.745 453.78 782.011 410.834 797.463 377.51C806.823 357.316 822.274 343.937 843.417 337.347C864.21 330.857 884.591 332.042 904.274 341.777C878.725 327.325 852.903 327.225 827.604 341.727C797.213 359.138 783.871 389.354 789.325 427.695C782.81 428.245 776.32 428.869 769.818 429.281C768.981 429.331 767.646 428.557 767.259 427.795C762.816 418.959 754.454 418.772 746.354 418.497C742.534 418.36 741.161 416.974 741.211 413.33C741.311 404.818 741.249 396.294 741.249 387.033C745.13 387.033 748.75 387.108 752.382 387.02C761.693 386.796 768.208 383.176 769.73 377.497C771.515 370.833 767.321 361.634 759.146 358.202C752.182 355.282 752.868 351.874 756.014 346.982C759.371 341.74 762.728 336.498 766.148 331.293C768.245 328.098 770.716 327.824 774.073 329.846C777.78 332.08 781.724 334.139 785.83 335.437C790.997 337.072 796.239 336.723 800.183 332.242C804.028 327.899 803.104 323.006 801.257 318.164C800.595 316.429 799.709 314.769 798.836 313.121C794.155 304.335 794.093 304.247 803.042 299.268C807.934 296.547 813.039 294.213 818.044 291.692C821.675 289.857 824.034 290.556 825.969 294.5C827.766 298.157 830.187 301.689 833.008 304.634C836.752 308.541 841.483 310.575 847.136 308.853C853.015 307.056 854.825 302.163 855.786 296.946C856.385 293.714 855.648 290.206 856.385 287.036C856.797 285.239 858.931 282.593 860.391 282.518C868.266 282.106 876.179 282.356 884.08 282.456C887.337 282.506 888.822 284.216 888.885 287.573C888.96 291.929 889.259 296.31 889.733 300.64C890.258 305.446 892.242 309.327 897.122 311.274C902.327 313.333 907.219 312.672 910.888 308.678C914.633 304.609 917.591 299.817 921.834 294.051C929.585 299.205 937.847 304.547 945.835 310.263C946.609 310.812 946.184 313.87 945.523 315.43C943.588 319.973 940.93 324.229 939.232 328.835C938.396 331.106 939.083 333.939 940.493 336.897C943.301 333.69 946.109 330.482 948.955 327.237C947.283 324.803 945.897 322.794 944.474 320.722C947.769 317.827 951.114 315.368 953.835 312.36C957.33 308.491 959.476 303.923 956.294 298.781C953.186 293.739 948.306 294.2 943.501 295.374C940.306 296.16 937.223 297.433 932.767 298.931C930.721 290.568 928.711 282.356 926.614 273.744C931.881 272.783 936.512 272.833 940.194 270.998C943.513 269.351 947.72 265.794 947.994 262.761C948.269 259.753 944.737 255.447 941.729 253.363C938.159 250.892 933.379 250.18 928.112 248.371C930.421 240.682 932.805 232.745 935.239 224.657C940.019 226.242 943.875 228.439 947.782 228.564C951.501 228.676 956.868 227.727 958.59 225.231C960.35 222.685 959.539 217.231 958.029 213.874C956.331 210.104 952.599 207.246 948.855 202.978C954.709 197.549 960.65 192.045 966.328 186.778C970.584 190.797 973.617 194.715 977.586 197.037C980.394 198.684 985.262 199.583 987.771 198.198C990.204 196.862 991.303 192.294 992.052 188.937C992.551 186.69 991.902 183.87 990.928 181.673C988.519 176.281 990.117 173.71 995.771 172.637C1001.4 171.564 1006.93 169.953 1012.83 168.493C1014.12 173.323 1014.43 177.966 1016.55 181.511C1018.57 184.881 1022.44 189.186 1025.58 189.249C1028.76 189.311 1032.75 185.193 1035.04 181.96C1037.18 178.902 1037.57 174.596 1039.22 169.292C1046.62 171.613 1054.28 174.022 1062.22 176.506C1060.97 180.812 1059.09 184.169 1059.27 187.414C1059.54 191.87 1060.08 197.861 1062.94 200.132C1065.26 201.979 1071.47 200.045 1075.39 198.435C1078.62 197.112 1081.03 193.792 1083.27 191.807C1089.29 197.162 1095.27 202.479 1100.3 206.959C1097.14 210.841 1094.41 213.899 1092.02 217.206C1089.25 221.063 1087.27 225.418 1090.31 229.887C1093.33 234.33 1097.94 235.391 1103.04 234.005C1106.4 233.094 1109.71 232.021 1114.19 230.673C1115.61 238.111 1117.13 245.113 1118.08 252.19C1118.22 253.238 1115.86 255.123 1114.29 255.822C1110.36 257.607 1105.84 258.318 1102.24 260.564C1095.14 265.02 1095.79 272.596 1103.44 276.016C1107.55 277.85 1112.08 278.786 1117.47 280.446C1115.41 288.497 1113.37 296.509 1111.38 304.272C1105.63 302.575 1101.16 300.865 1096.52 299.979C1091.39 298.993 1086.76 300.291 1085.1 306.007C1083.51 311.486 1085.68 315.73 1090.41 318.725C1091.11 319.162 1091.86 319.574 1092.65 319.811C1098.16 321.446 1097.63 324.292 1094.44 327.924C1092.41 330.245 1090.6 332.779 1088.4 335.587C1091.46 337.996 1094.32 340.255 1097.18 342.514C1097.84 342.314 1098.51 342.102 1099.17 341.902C1098.89 338.457 1099.14 334.85 1098.18 331.605C1097.09 327.924 1097.88 325.615 1101.1 323.88C1103.29 322.694 1105.44 321.434 1107.67 320.335C1114 317.24 1119.18 318.534 1123.21 324.217C1129.73 333.39 1138.56 332.529 1143.06 321.97C1144.75 317.976 1146.84 317.003 1150.6 318.55C1152.52 319.337 1154.51 319.923 1156.41 320.772C1159.81 322.295 1164.41 323.106 1166.13 325.764C1167.64 328.086 1165.98 332.542 1165.52 336.024C1164.1 346.682 1168.67 351.3 1179.13 348.168C1186.12 346.071 1189.14 348.554 1191.25 354.42C1191.94 356.367 1192.84 358.252 1193.59 360.187C1196.74 368.324 1196.69 368.249 1189.22 372.63C1186.83 374.028 1184.77 375.987 1182.55 377.685C1182.73 378.184 1182.91 378.683 1183.1 379.182C1187.24 378.858 1191.37 378.546 1195.63 378.221C1195.91 376.387 1196.38 374.964 1196.33 373.554C1196.16 369.285 1198.38 368.212 1202.2 368.536C1204.89 368.761 1207.77 369.073 1210.27 368.337C1213.24 367.45 1217.61 366.015 1218.27 363.868C1219.18 360.886 1218.27 356.13 1216.23 353.734C1213.01 349.927 1208.22 347.444 1202.95 343.562C1206.51 337.621 1210.14 331.243 1214.22 325.153C1214.82 324.254 1217.76 324.217 1219.24 324.766C1223.27 326.276 1226.93 329.047 1231.05 329.983C1238.52 331.668 1243.17 326.151 1240.73 318.912C1239.76 316.004 1238.47 312.959 1236.53 310.663C1233.42 306.993 1233.88 304.584 1237.87 302.3C1242.38 299.729 1246.76 296.946 1251.28 294.4C1254.51 292.565 1256.67 292.64 1258.23 297.021C1261.54 306.294 1266.9 310.163 1272.81 308.591C1278.09 307.18 1281.23 299.867 1279.7 291.005C1278.94 286.612 1280.05 284.69 1284.5 284.628C1286.32 284.603 1288.15 284.191 1290.22 283.929V126.77C1285.5 124.81 1280.91 122.901 1275.84 120.791C1280.62 115.712 1285.44 115.5 1290.34 119.094C1297.45 124.299 1302.08 123.387 1307.59 115.525C1301.95 115.525 1296.45 115.624 1290.94 115.5C1286.18 115.387 1281.25 115.662 1276.74 114.476C1274.46 113.877 1272.93 110.407 1271.07 108.236C1273.29 107.162 1275.55 105.103 1277.73 105.203C1284.75 105.54 1291.73 106.775 1298.76 107.424C1302.09 107.736 1305.48 107.474 1308.85 107.474C1308.94 106.551 1309.03 105.627 1309.11 104.704C1305.94 104.042 1302.8 102.944 1299.62 102.807C1292.35 102.507 1285.04 103.019 1277.8 102.47C1275.55 102.295 1273.47 99.8111 1271.32 98.3758C1273.47 97.1901 1275.6 95.0684 1277.79 95.0185C1284.42 94.8687 1291.06 95.5801 1297.71 95.8172C1301.71 95.967 1305.72 95.8422 1309.74 95.8422C1309.78 95.031 1309.83 94.2197 1309.86 93.4084C1307.22 93.1214 1304.57 92.8094 1301.93 92.5473C1293.74 91.761 1285.53 91.1494 1277.36 90.1509C1275.22 89.8888 1272.28 89.0651 1271.3 87.4925C1264.52 76.7091 1254.32 68.1722 1251.34 54.8676C1244.15 23.2162 1262.65 -0.235354 1295.11 0.00178234C1318.75 0.176514 1336 14.517 1337.1 36.2961C1337.86 51.2606 1333.13 64.9521 1323.04 76.4969C1320.56 79.33 1318.5 82.5376 1316.25 85.5705L1317.18 87.7671H1534.15C1534.18 88.5534 1534.22 89.3522 1534.24 90.1385C1532.14 90.2633 1530.05 90.5004 1527.94 90.4879C1475.32 90.2882 1375.69 90.0761 1323.07 89.7391C1320.17 89.7266 1317.28 88.516 1314.38 87.867C1315.53 84.6719 1315.87 80.7279 1317.98 78.4065C1324.84 70.868 1329.91 62.5433 1332.67 52.7209C1341.18 22.4174 1320.12 -2.70656 1285.13 3.27176C1256.33 8.17674 1242.59 40.0029 1258.08 65.1019C1262.21 71.8041 1266.63 78.4689 1271.9 84.2725C1274.42 87.0432 1279.22 87.7421 1282.99 89.3771C1283.45 88.8529 1283.9 88.3287 1284.37 87.8045C1282.82 79.9416 1281.52 72.0287 1279.55 64.2781C1279.09 62.4435 1276.43 61.108 1274.68 59.6727C1271.07 56.7148 1267.22 54.0189 1263.9 50.7739C1263.06 49.9501 1263.19 46.7426 1264.06 45.9438C1265 45.0826 1267.93 45.0701 1268.98 45.9313C1272.16 48.5398 1274.79 51.7848 1277.75 54.6804C1278.76 55.6664 1280.06 56.3653 1282.33 57.9878C1279 49.5383 1275.84 42.8735 1273.83 35.8717C1272.93 32.764 1274.34 28.9948 1274.69 25.5251C1277.11 28.0712 1280.52 30.2054 1281.74 33.2383C1284.04 38.9046 1284.98 45.12 1286.69 51.0485C1287.21 52.8707 1288.38 54.5056 1289.26 56.228C1290.03 54.593 1291.29 53.0079 1291.52 51.2981C1292.77 41.4007 1296.02 32.5144 1303.05 25.1257C1308.07 29.9059 1306.34 37.0949 1296.3 55.5665C1302.45 57.3887 1304.78 56.4277 1307.93 51.5976C1309.95 48.5024 1312.21 45.4071 1314.97 43.0233C1316.27 41.9 1319.02 42.4616 1321.11 42.2619C1320.81 44.3088 1321.21 46.9547 1320.06 48.2902C1317.8 50.9112 1314.46 52.5586 1312.01 55.0548C1309.85 57.2514 1307.49 59.8225 1306.69 62.6556C1305.33 67.3984 1305.52 72.5654 1304.35 77.383C1303.3 81.7139 1301.29 85.8201 1299.69 90.0761C1300.59 90.0761 1303 89.5144 1304.93 90.2133C1307.7 91.2118 1310.14 93.1464 1312.71 94.6815C1310.24 96.0669 1307.88 98.2385 1305.26 98.6379C1301.64 99.1871 1297.83 98.2635 1294.09 98.2011C1287.6 98.1012 1281.11 98.1761 1274.62 98.1761C1274.57 98.7003 1274.52 99.237 1274.47 99.7612C1277.75 99.9734 1281.03 100.235 1284.32 100.373C1291.57 100.66 1298.87 100.485 1306.04 101.346C1308.07 101.583 1309.74 104.754 1311.57 106.576C1309.44 107.799 1307.29 110.083 1305.18 110.058C1298.57 109.958 1291.97 108.935 1285.36 108.348C1281.72 108.024 1278.06 107.836 1274.42 107.587C1274.16 108.336 1273.88 109.097 1273.62 109.846C1275.85 110.832 1278.06 112.579 1280.32 112.654C1288.41 112.941 1296.52 112.517 1304.62 112.679C1306.71 112.716 1308.75 113.927 1310.82 114.588C1309.66 116.598 1308.99 119.331 1307.27 120.467C1303.19 123.138 1298.61 125.035 1293.31 127.706C1293.28 128.542 1293.09 130.539 1293.09 132.548C1293.09 180.799 1293.15 229.063 1293.03 277.314C1293.01 282.169 1293.43 285.351 1299.49 284.94C1303.96 284.64 1305.47 286.924 1304.67 291.692C1304.05 295.448 1304.45 299.642 1305.46 303.349C1307.52 310.95 1314.89 312.934 1320.31 307.155C1324.07 303.149 1326.66 298.057 1330.27 292.728C1337.5 295.012 1343.76 299.605 1349.43 304.984C1350.28 305.783 1349.67 308.703 1349.02 310.363C1347.58 314.007 1345.08 317.302 1344.12 321.034C1342.09 328.959 1347.33 333.665 1355.09 331.106C1358 330.145 1361.05 328.835 1363.31 326.863C1367.06 323.555 1369.67 324.629 1371.97 328.136C1374.93 332.641 1377.62 337.309 1380.43 341.902C1382.42 345.147 1381.47 346.919 1378.03 348.592C1374.19 350.476 1370.28 352.785 1367.3 355.793C1362.35 360.798 1364.04 366.789 1370.83 368.536C1374.98 369.61 1379.44 369.722 1383.76 369.697C1387.24 369.672 1388.88 371.045 1388.92 374.315C1388.99 379.919 1389.23 385.573 1388.64 391.127C1388.49 392.599 1385.68 394.634 1383.88 394.896C1380.23 395.432 1376.19 394.097 1372.77 395.108C1369.56 396.057 1365.42 398.515 1364.52 401.249C1363.62 403.994 1365.35 408.612 1367.49 411.083C1370.06 414.079 1374.5 415.377 1377.65 417.985C1379.08 419.171 1380.58 422.354 1379.97 423.552C1377.25 428.869 1373.98 433.961 1370.38 438.754C1369.61 439.789 1366.4 439.914 1364.82 439.253C1361.04 437.68 1357.74 434.772 1353.88 433.512C1345.96 430.928 1339.86 436.894 1342.49 444.794C1344.15 449.774 1347.32 454.255 1350.64 460.52C1344.54 463.803 1338.2 467.472 1331.57 470.542C1330.54 471.017 1327.79 469.082 1326.64 467.622C1324.23 464.551 1322.91 460.408 1320.07 457.937C1317.74 455.915 1313.46 454.242 1310.79 455.029C1308.09 455.815 1305.5 459.497 1304.4 462.467C1303.24 465.6 1303.47 469.469 1303.89 472.914C1304.38 477.132 1302.86 478.655 1298.84 478.53C1294.06 478.38 1289.28 478.368 1284.5 478.305C1280.21 478.255 1278.01 476.77 1278.71 471.84C1279.2 468.42 1278.94 464.739 1278.24 461.344C1276.8 454.355 1270.24 451.484 1264.65 455.865C1261.24 458.523 1258.62 462.642 1256.71 466.623C1255.01 470.155 1253.11 470.992 1250.04 469.319C1244.13 466.087 1238.34 462.617 1232.52 459.272C1235.58 453.83 1238.75 449.774 1240.12 445.181C1241.03 442.111 1240.59 436.981 1238.59 435.109C1236.29 432.962 1231.31 432.238 1227.98 433C1223.72 433.973 1219.95 437.069 1214.83 439.864C1210.65 433.05 1206.3 425.973 1201.7 418.485C1206.45 416.076 1210.17 414.366 1213.7 412.344C1217.83 409.985 1220.25 406.515 1219.2 401.523C1218.08 396.206 1214.02 394.159 1209.21 393.648C1205.52 393.261 1201.78 393.573 1197.1 393.573C1196.77 392.063 1196.09 389.978 1195.91 387.832C1195.6 383.95 1196.74 381.591 1201.52 381.978C1210.63 382.715 1219.79 382.902 1228.91 383.413C1233.98 383.701 1236.35 382.452 1237.08 376.399C1239.2 358.751 1246.86 343.362 1262.35 334.002C1270.36 329.159 1280.35 327.562 1290.22 324.229V287.111C1287.42 287.286 1285.03 287.423 1282.46 287.585C1282.49 297.246 1284.44 307.63 1272.57 311.324C1265.64 313.483 1260.45 308.691 1254.26 295.636C1248.42 299.118 1242.67 302.562 1237.05 305.92C1240.89 314.02 1249.04 321.421 1241.03 329.596C1232.81 337.983 1224.62 330.769 1216.15 326.401C1212.89 331.818 1209.63 337.234 1206.16 343C1214.52 348.118 1224.64 352.623 1221.12 364.143C1217.99 374.377 1207.51 370.209 1199.43 371.769C1200.86 386.421 1188.43 379.382 1181.89 382.839C1181.74 388.206 1185.49 391.189 1189.71 393.286C1194.79 395.807 1195.46 399.239 1193.33 403.957C1192.39 406.029 1191.67 408.213 1190.7 410.272C1186.65 418.822 1186.74 418.36 1177.89 416.051C1174.1 415.052 1168.06 414.828 1165.98 417.024C1163.55 419.608 1163.23 425.399 1163.94 429.455C1165.5 438.267 1165.98 438.242 1157.93 442.161C1156.81 442.71 1155.66 443.184 1154.51 443.671C1147.52 446.633 1142.26 444.907 1138.74 438.491C1136.54 434.473 1133.81 431.028 1128.74 431.29C1123.42 431.577 1120.47 435.246 1119.29 439.927C1117.81 445.88 1114.55 446.367 1109.76 444.108C1108.64 443.584 1107.44 443.209 1106.28 442.747C1094.34 437.98 1094.29 437.967 1096.99 425.961C1098.08 421.106 1098.8 416.338 1094.32 412.806C1089.71 409.174 1085.28 411.52 1080.96 413.729C1073.78 417.411 1073.03 417.162 1070.08 409.91C1069.38 408.188 1068.8 406.403 1068.21 404.631C1065.14 395.283 1065.43 395.695 1073.45 390.128C1076.37 388.094 1078.61 383.813 1079.34 380.181C1080.32 375.326 1077.46 370.87 1072.77 369.323C1066.52 367.263 1066.42 363.943 1069.02 359.101C1069.69 357.828 1070.08 356.405 1070.66 355.069C1074.59 345.759 1074.51 346.108 1084.47 348.155C1088.07 348.891 1092.1 347.506 1095.93 347.094C1095.9 346.495 1095.89 345.884 1095.87 345.284C1092.85 342.801 1089.84 340.317 1086.68 337.734C1084.4 339.83 1082.33 341.727 1080.34 343.55C1076.09 339.543 1072.55 335.25 1068.11 332.392C1065.41 330.657 1060.02 329.534 1058.1 331.019C1055.42 333.091 1053.83 337.846 1053.67 341.54C1053.49 345.222 1055.65 349.004 1057.05 353.647C1049.06 355.781 1041.14 357.89 1032.38 360.224C1031.82 357.578 1031.5 355.419 1030.88 353.36C1029.98 350.414 1029.62 346.757 1027.63 344.835C1025.21 342.489 1021.14 340.105 1018.19 340.529C1015.34 340.941 1012.21 344.498 1010.69 347.431C1009.16 350.352 1009.49 354.233 1008.81 359.051C1000.28 357.066 991.852 355.119 982.953 353.048C984.738 347.918 987.072 343.762 987.409 339.443C987.671 335.999 986.51 330.807 984.114 329.222C981.38 327.412 976.039 327.562 972.806 329.022C968.687 330.882 965.542 334.913 961.81 338.158C961.199 337.783 960.462 337.434 959.838 336.935C951.339 329.945 951.277 329.534 958.665 321.596C962.921 317.028 967.264 312.547 971.695 308.166C979.371 300.566 979.421 300.603 988.969 305.558C985.125 301.527 980.981 297.87 977.674 293.564C966.291 278.774 963.034 262.274 970.41 244.938C978.16 226.716 991.927 215.284 1012.06 212.338C1022.59 210.803 1032.79 212.014 1042.66 215.808C1072.43 227.228 1084.57 254.811 1072.53 284.64C1069.22 292.827 1064.38 300.391 1060.02 308.641L1060 308.591ZM924.842 357.965C921.659 361.797 920.012 360.199 917.416 357.94C910.914 352.286 904.473 345.933 896.86 342.277C859.18 324.229 798.236 345.122 793.406 404.306C789.937 446.741 821.001 489.126 869.465 486.006C900.18 484.034 924.181 471.391 936.824 442.685C949.929 412.918 944.412 384.761 924.855 357.953L924.842 357.965ZM1251.33 348.817C1244.03 357.578 1239.9 367.837 1239.35 379.257C1239.13 383.626 1237.25 385.273 1233.49 385.635C1230.81 385.897 1228.09 385.985 1225.39 385.86C1216.73 385.473 1208.07 384.961 1198.71 384.462C1198.83 387.008 1198.93 388.905 1199.03 390.877C1208.24 391.114 1218.54 388.967 1221.45 400.312C1224.57 412.469 1213.72 415.077 1205.34 419.67C1208.81 425.299 1212.14 430.678 1215.58 436.27C1223.95 431.39 1232.42 424.425 1240.67 433.15C1249.04 441.999 1240.47 449.899 1236.15 458.561C1241.58 461.618 1247.02 464.689 1251.78 467.36C1255.77 462.255 1258.44 457.337 1262.45 454.055C1269.94 447.927 1278.89 451.447 1280.91 460.882C1281.63 464.277 1281.03 467.946 1281.61 471.391C1281.86 472.939 1283.42 475.385 1284.54 475.472C1290.02 475.896 1295.55 475.659 1301.03 475.659C1300.99 466.299 1298.94 455.84 1309.53 452.495C1321.98 448.551 1325.05 460.345 1330.61 468.807C1336.14 465.737 1341.63 462.679 1347.27 459.547C1342.14 450.872 1334.09 442.61 1342.66 433.674C1351.59 424.376 1359.57 433.861 1368.51 437.93C1371.83 432.526 1375.18 427.071 1378.42 421.792C1373.69 418.759 1369.85 416.65 1366.44 414.016C1361.73 410.372 1359.81 405.305 1361.85 399.601C1363.76 394.259 1368.56 392.499 1373.82 392.187C1377.71 391.963 1381.62 392.138 1386.07 392.138V372.655C1381.2 372.38 1376.82 372.53 1372.59 371.794C1368.07 370.995 1362.63 369.497 1362.61 364.093C1362.58 360.074 1364.65 355.369 1367.29 352.211C1370.07 348.904 1374.63 347.082 1379.17 344.111C1375.46 338.358 1371.76 332.616 1368.15 327.037C1360.19 331.605 1353.01 338.857 1345.13 332.192C1335.04 323.618 1344.47 315.018 1347.97 306.145C1342.36 302.5 1336.92 298.968 1331.51 295.448C1325.91 303.461 1323.33 314.993 1311.61 312.36C1298.48 309.414 1302.6 297.146 1301.58 287.623H1293.25C1293.25 299.767 1293.09 311.599 1293.48 323.406C1293.51 324.728 1296.5 326.85 1298.32 327.1C1321.38 330.195 1338.25 344.124 1344.22 365.404C1350.56 387.969 1343.47 412.718 1325.43 425.961C1308.34 438.491 1288.92 443.259 1269.16 433.424C1249.72 423.739 1240.16 406.778 1240.45 384.761C1240.61 371.781 1245.08 360.112 1251.35 348.829L1251.33 348.817ZM1343.95 379.42C1343.22 363.494 1337.07 348.105 1321.32 338.183C1311.34 331.892 1301.01 329.384 1288.25 331.605C1272.68 334.326 1260.36 340.13 1252.74 353.584C1248.43 361.173 1245.33 369.859 1243.63 378.446C1238.85 402.721 1256.56 429.955 1279.17 434.498C1313.11 441.3 1343.84 416.163 1343.95 379.42ZM1022.95 313.733C1052.21 310.525 1065.06 305.258 1072.6 275.941C1077.69 256.171 1072.89 239.11 1056.49 226.454C1040.84 214.385 1022.98 211.29 1004.03 216.744C985.324 222.123 970.222 241.394 969.461 259.791C968.263 288.659 993.05 313.646 1022.95 313.733ZM743.982 415.452C745.729 415.651 746.74 415.801 747.764 415.889C755.876 416.588 764.126 416.825 768.794 425.374C769.293 426.285 771.315 426.809 772.588 426.747C777.056 426.51 781.512 425.923 785.905 425.486C780.177 386.297 795.303 356.992 828.278 338.707C863.087 319.412 895.911 326.626 925.104 353.934C930.084 346.882 940.256 342.963 936.15 331.381C935.551 329.708 936.499 327.225 937.323 325.378C939.32 320.909 941.666 316.591 944.175 311.624C937.011 306.981 929.785 302.313 922.858 297.832C918.939 302.762 915.931 307.255 912.211 311.049C907.881 315.455 902.339 315.892 896.573 313.92C890.782 311.936 888.011 307.567 887.25 301.814C886.701 297.695 886.738 293.514 886.139 289.408C885.914 287.885 884.641 285.301 883.768 285.264C875.58 284.94 867.38 285.077 859.168 285.077C858.282 295.86 860.316 307.929 847.386 311.287C833.058 315.006 827.804 302.987 821.313 292.715C813.376 296.959 805.663 301.065 797.812 305.258C800.096 309.851 802.006 313.296 803.541 316.891C806.024 322.707 806.861 328.635 802.318 333.877C797.475 339.468 791.072 339.93 784.595 337.746C779.578 336.049 774.847 333.478 769.094 330.882C764.613 338.108 760.107 345.384 755.452 352.898C766.335 358.439 774.96 365.491 772.064 377.435C768.557 391.888 754.965 388.868 743.995 389.879V415.439L743.982 415.452ZM1111.36 360.286C1107.79 357.366 1104.32 354.408 1100.71 351.637C1099.31 350.564 1096.93 348.742 1096.12 349.216C1089.53 353.01 1083.3 350.938 1076.43 348.13C1074.11 353.884 1071.94 359.275 1069.67 364.904C1077.74 367.8 1082.13 372.405 1082.25 380.381C1082.39 389.529 1075.42 392.35 1068.18 395.869C1070.31 401.885 1072.38 407.751 1074.54 413.867C1082.03 410.572 1088.49 404.831 1095.7 410.559C1104.85 417.823 1098.68 426.859 1097.19 435.908C1103.11 438.279 1108.92 440.601 1115 443.047C1118.1 435.147 1120.97 427.945 1130.18 428.644C1139.29 429.33 1140.79 438.129 1145.29 444.595C1151.23 441.949 1157.01 439.39 1162.95 436.744C1162.08 433.524 1161.24 431.19 1160.82 428.781C1159.91 423.564 1158.93 417.411 1164.22 414.678C1168.13 412.669 1174.01 412.094 1178.15 413.492C1184.29 415.552 1186.9 413.867 1188.7 408.462C1189.42 406.303 1190.96 404.244 1191.05 402.097C1191.13 400.1 1190.27 397.617 1188.96 396.106C1185.17 391.788 1180.92 387.857 1175.94 382.852H1162.3C1157.7 402.809 1148.7 412.219 1133.67 413.243C1119.56 414.204 1106.54 406.403 1101.67 394.072C1096.88 381.916 1100.77 369.06 1111.37 360.324L1111.36 360.286ZM1057.55 309.976C1029.87 325.864 1004.56 323.368 981.43 303.973C972.531 312.522 964.082 320.647 955.383 328.997C957.592 331.356 959.289 333.153 961.086 335.088C968.25 328.685 974.666 319.836 984.937 326.214C995.446 332.741 989.318 342.239 986.61 351.138C993.424 352.785 999.79 354.321 1006.47 355.918C1007.39 347.481 1007.63 338.32 1018.09 337.584C1030.57 336.71 1032.39 347.082 1034.64 356.842C1041.18 355.119 1047.27 353.509 1053.25 351.937C1052.3 347.568 1051.2 343.986 1050.77 340.33C1050.19 335.187 1051.78 330.045 1056.75 328.485C1060.37 327.349 1065.36 328.036 1068.85 329.733C1072.77 331.655 1075.67 335.637 1079.04 338.695C1079.45 339.069 1079.98 339.294 1080.72 339.755C1081.99 338.258 1083.15 336.897 1084.46 335.362C1075.29 326.713 1066.38 318.301 1057.55 309.976ZM1146.94 320.348C1146.13 322.132 1145.65 323.268 1145.1 324.354C1139.58 335.3 1128.68 336.173 1121.35 326.276C1117.83 321.517 1113.39 320.46 1108.05 323.106C1106.38 323.93 1104.35 324.529 1103.24 325.864C1102.03 327.325 1101.26 329.471 1101.05 331.406C1100.52 336.336 1100.44 341.316 1100.17 346.27C1100.11 347.618 1101.91 348.767 1103.24 350.314C1107.5 355.282 1111.73 355.906 1118.2 353.347C1134.88 346.72 1151.92 353.846 1158.91 369.447C1160.33 372.618 1161.04 376.112 1162.15 379.707C1165.31 379.707 1168.41 379.869 1171.48 379.657C1174.06 379.482 1177.2 379.682 1179.06 378.309C1183.78 374.839 1187.9 370.571 1192.86 366.09C1191.86 363.457 1190.38 360.062 1189.26 356.542C1187.56 351.238 1185.06 349.216 1178.88 350.876C1167.27 353.996 1161.43 348.255 1162.89 336.311C1163.7 329.737 1160.9 325.224 1154.49 322.769C1152.19 321.895 1149.82 321.259 1146.93 320.335L1146.94 320.348ZM1132.7 410.672C1142.65 410.172 1150.28 405.03 1155.85 395.595C1162.32 384.624 1154.69 376.811 1149.96 369.148C1143.67 358.963 1132.97 356.342 1121.45 358.676C1111.23 360.748 1104.62 368.748 1102.79 380.268C1100.22 396.581 1113.65 410.672 1132.7 410.672ZM1304.11 59.4605C1297.76 58.9613 1291.59 58.2873 1285.4 58.1501C1284.17 58.1251 1281.64 60.3841 1281.79 61.2203C1283.43 70.244 1285.49 79.1803 1287.46 88.3038C1293.73 87.4052 1300.39 88.0167 1301.55 79.7419C1302.49 73.0272 1303.25 66.2876 1304.1 59.4605H1304.11ZM1119.93 355.619C1142.48 355.257 1146.91 358.002 1158.33 378.508C1156.5 360.511 1138.36 349.191 1119.93 355.619ZM1277.59 28.9823C1276.51 29.3817 1275.44 29.7936 1274.37 30.193C1276.96 37.2821 1279.55 44.3837 1282.14 51.4728C1283.1 51.1233 1284.07 50.7739 1285.04 50.4244C1282.56 43.2729 1280.07 36.1214 1277.6 28.9698L1277.59 28.9823ZM1303.87 31.2413C1302.95 30.8919 1302.03 30.5424 1301.1 30.193C1298.57 36.9576 1296.03 43.7222 1293.5 50.4868C1294.4 50.8238 1295.3 51.1608 1296.2 51.5102C1298.76 44.7581 1301.31 38.006 1303.86 31.2413H1303.87Z" fill="#DDDDDD" fill-opacity="0.53"/>
</svg>
